<?xml version="1.0" encoding="UTF-8"?>
<svg id="Layer_1" xmlns="http://www.w3.org/2000/svg" version="1.1" viewBox="0 0 40 40">
  <!-- Generator: Adobe Illustrator 29.4.0, SVG Export Plug-In . SVG Version: 2.1.0 Build 152)  -->
  <defs>
    <style>
      .st0 {
        fill: #231f20;
      }
    </style>
  </defs>
  <path class="st0" d="M6.88,29.39c-.3,0-.55-.1-.75-.3-.2-.2-.3-.45-.3-.75s.1-.55.3-.74c.2-.2.45-.3.75-.3h26.24c.3,0,.55.1.75.3.2.2.3.45.3.75s-.1.55-.3.74c-.2.2-.45.3-.75.3H6.88ZM6.88,21.05c-.3,0-.55-.1-.75-.3-.2-.2-.3-.45-.3-.75s.1-.55.3-.74c.2-.2.45-.3.75-.3h26.24c.3,0,.55.1.75.3.2.2.3.45.3.75s-.1.55-.3.74c-.2.2-.45.3-.75.3H6.88ZM6.88,12.7c-.3,0-.55-.1-.75-.3-.2-.2-.3-.45-.3-.75s.1-.55.3-.74c.2-.2.45-.3.75-.3h26.24c.3,0,.55.1.75.3.2.2.3.45.3.75s-.1.55-.3.74c-.2.2-.45.3-.75.3H6.88Z"/>
</svg>