<?xml version="1.0" encoding="UTF-8"?>
<svg id="Layer_1" data-name="Layer 1" xmlns="http://www.w3.org/2000/svg" viewBox="0 0 144 144">
  <defs>
    <style>
      .cls-1 {
        fill: #ffc20b;
      }

      .cls-2 {
        fill: #ff391a;
      }
    </style>
  </defs>
  <path class="cls-1" d="M143.97,8.99v18c0,6.99-2.01,9-9,9H26.99c-6.99,0-9-2.01-9-9V8.99C17.99,2.22,19.88.12,26.35,0h109.26c6.47.12,8.36,2.22,8.36,8.99Z"/>
  <path class="cls-2" d="M89.98,62.34v19.28c-.12,6.47-2.22,8.36-8.99,8.36h-40.5c-3.38,0-4.43.94-4.49,4.18,0,.1,0,.21,0,.32v13.5h0v26.99c0,6.99-2.01,9-9,9H9c-6.99,0-9-2.01-9-9V62.98c0-6.99,2.01-9,9-9h71.98c6.77,0,8.87,1.89,8.99,8.36Z"/>
</svg>