<?xml version="1.0" encoding="UTF-8"?>
<svg id="Layer_1" data-name="Layer 1" xmlns="http://www.w3.org/2000/svg" viewBox="0 0 144 144">
  <defs>
    <style>
      .cls-1 {
        fill: #ff391a;
      }
    </style>
  </defs>
  <path class="cls-1" d="M61.71,5.14v133.71c0,3.99-1.15,5.14-5.14,5.14H5.14c-3.99,0-5.14-1.15-5.14-5.14v-30.86c0-3.99,1.15-5.14,5.14-5.14h10.29c3.99,0,5.14,1.15,5.14,5.14v5.14h0v7.71c0,.06,0,.12,0,.18.03,1.85.63,2.39,2.57,2.39h15.61c1.85-.03,2.39-.64,2.39-2.57V22.96c-.03-1.85-.64-2.39-2.57-2.39h-15.43c-2,0-2.57.57-2.57,2.57v12.86c0,3.99-1.15,5.14-5.14,5.14H5.14c-3.99,0-5.14-1.15-5.14-5.14V5.14C0,1.15,1.15,0,5.14,0h51.43c3.99,0,5.14,1.15,5.14,5.14Z"/>
  <path class="cls-1" d="M138.86,0h-10.29c-3.99,0-5.14,1.15-5.14,5.14v12.86c0,1.93-.54,2.53-2.39,2.57h-15.61c-1.93,0-2.53-.54-2.57-2.39,0-.06,0-.12,0-.18v-7.71h0v-5.14c0-3.99-1.15-5.14-5.14-5.14h-10.29c-3.99,0-5.14,1.15-5.14,5.14v133.71c0,3.99,1.15,5.14,5.14,5.14h51.43c3.99,0,5.14-1.15,5.14-5.14V5.14c0-3.99-1.15-5.14-5.14-5.14ZM123.43,120.86c0,1.93-.54,2.53-2.39,2.57h-15.61c-1.93,0-2.53-.54-2.57-2.39V43.71c0-2,.57-2.57,2.57-2.57h15.43c2,0,2.57.57,2.57,2.57v77.15Z"/>
  <rect class="cls-1" y="61.71" width="20.57" height="20.57" rx="5.14" ry="5.14"/>
</svg>