<?xml version="1.0" encoding="UTF-8"?>
<svg id="Layer_1" data-name="Layer 1" xmlns="http://www.w3.org/2000/svg" viewBox="0 0 432 144">
  <defs>
    <style>
      .cls-1 {
        fill: #fff;
      }
    </style>
  </defs>
  <rect class="cls-1" x="138.27" y="41.11" width="54.07" height="15.45" rx="3.86" ry="3.86"/>
  <rect class="cls-1" x="200.06" y="41.11" width="46.34" height="15.45" rx="3.86" ry="3.86"/>
  <path class="cls-1" d="M242.54,64.28h-46.34c-3,0-3.86.86-3.86,3.86v30.89c0,3,.86,3.86,3.86,3.86h7.72c3,0,3.86-.86,3.86-3.86v-17.38c0-1.45.41-1.9,1.79-1.93h19.45c1.45,0,1.9.41,1.93,1.79,0,.04,0,.09,0,.14v5.79h0v11.58c0,3,.86,3.86,3.86,3.86h7.72c3,0,3.86-.86,3.86-3.86v-30.89c0-3-.86-3.86-3.86-3.86ZM200.06,95.17h0s0,0,0,0h0Z"/>
  <path class="cls-1" d="M300.47,44.69v8.28c-.05,2.78-.95,3.59-3.86,3.59h-38.62c-3,0-3.86-.86-3.86-3.86v-7.72c0-3,.86-3.86,3.86-3.86h38.9c2.69.05,3.53.9,3.58,3.58Z"/>
  <rect class="cls-1" x="323.64" y="41.11" width="46.34" height="15.45" rx="3.86" ry="3.86"/>
  <path class="cls-1" d="M431.77,67.86v31.45c-.05,2.78-.95,3.59-3.86,3.59h-7.72c-3,0-3.86-.86-3.86-3.86v-11.58h0v-5.79s0-.09,0-.14c-.03-1.39-.48-1.79-1.93-1.79h-13.52s-5.79,0-5.79,0c-.05,0-.09,0-.14,0-1.39.03-1.79.48-1.79,1.93v17.38c0,3-.86,3.86-3.86,3.86h-7.72c-2.91,0-3.81-.81-3.86-3.59v-31.45c.05-2.78.95-3.59,3.86-3.59h46.34c2.91,0,3.81.81,3.86,3.59Z"/>
  <path class="cls-1" d="M424.05,44.96v7.72c0,3-.86,3.86-3.86,3.86h-3.86s-30.89,0-30.89,0h0s-3.86,0-3.86,0c-2.91,0-3.81-.81-3.86-3.59v-8.28c.05-2.6.84-3.47,3.32-3.58h39.69c2.57.11,3.33,1.04,3.33,3.85Z"/>
  <path class="cls-1" d="M169.16,68.14v7.72c0,3-.86,3.86-3.86,3.86h-11.58s-5.79,0-5.79,0c-.05,0-.09,0-.14,0-1.39.03-1.79.48-1.79,1.93v17.38c0,3-.86,3.86-3.86,3.86h-7.72c-3,0-3.86-.86-3.86-3.86v-30.89c0-3,.86-3.86,3.86-3.86h30.89c3,0,3.86.86,3.86,3.86Z"/>
  <path class="cls-1" d="M308.19,68.14v30.89c0,3-.86,3.86-3.86,3.86h-7.72c-3,0-3.86-.86-3.86-3.86v-17.38c0-1.5-.43-1.93-1.93-1.93h-19.45c-1.39.03-1.79.48-1.79,1.93v17.38c0,3-.86,3.86-3.86,3.86h-7.72c-3,0-3.86-.86-3.86-3.86v-30.89c0-3,.86-3.86,3.86-3.86h46.34c3,0,3.86.86,3.86,3.86Z"/>
  <path class="cls-1" d="M369.98,68.14v30.89c0,3-.86,3.86-3.86,3.86h-7.72c-3,0-3.86-.86-3.86-3.86v-17.38c0-1.5-.43-1.93-1.93-1.93h-13.52s-5.79,0-5.79,0c-.05,0-.09,0-.14,0-1.39.03-1.79.48-1.79,1.93v5.79h0v11.86c-.05,2.78-.95,3.59-3.86,3.59h-7.72c-3,0-3.86-.86-3.86-3.86v-30.89c0-3,.86-3.86,3.86-3.86h46.34c3,0,3.86.86,3.86,3.86Z"/>
  <path class="cls-1" d="M89.09,25.66H4.09c-3,0-3.86.86-3.86,3.86v84.96c0,3,.86,3.86,3.86,3.86h85c2.65,0,3.63-.67,3.82-2.89.03-.3.04-.62.04-.97V29.52c0-3-.86-3.86-3.86-3.86ZM85.23,108.69s0,.09,0,.14c-.02,1.34-.45,1.77-1.79,1.79H15.67s-5.79,0-5.79,0c-.05,0-.09,0-.14,0-1.39-.03-1.79-.48-1.79-1.93V35.31c0-1.5.43-1.93,1.93-1.93h73.42c1.45,0,1.9.41,1.93,1.79v67.72h0v5.79Z"/>
  <path class="cls-1" d="M77.46,44.97v7.72c0,3-.86,3.86-3.86,3.86H27.26c-3,0-3.86-.86-3.86-3.86v-7.72c0-2.91.81-3.81,3.59-3.86h46.89c2.78.05,3.59.95,3.59,3.86Z"/>
  <path class="cls-1" d="M54.29,67.86v8.27c-.05,2.78-.95,3.59-3.86,3.59h-17.38c-1.45,0-1.9.41-1.93,1.79,0,.04,0,.09,0,.14v5.79h0v11.58c0,3-.86,3.86-3.86,3.86h-7.72c-3,0-3.86-.86-3.86-3.86v-30.89c0-3,.86-3.86,3.86-3.86h30.89c2.91,0,3.81.81,3.86,3.59Z"/>
</svg>