<?xml version="1.0" encoding="UTF-8"?>
<svg id="Layer_1" data-name="Layer 1" xmlns="http://www.w3.org/2000/svg" viewBox="0 0 396 144">
  <defs>
    <style>
      .cls-1 {
        fill: #fff;
      }

      .cls-2 {
        fill: #ff391a;
      }
    </style>
  </defs>
  <g>
    <path class="cls-2" d="M92.35,28.35H9.02c-1.54,0-1.98.44-1.98,1.98v83.33c0,1.54.44,1.98,1.98,1.98h83.33c1.54,0,1.98-.44,1.98-1.98V30.34c0-1.54-.44-1.98-1.98-1.98ZM86.4,106.72c0,.77-.22.99-.99.99H15.97c-.77,0-.99-.22-.99-.99V37.28c0-.77.22-.99.99-.99h69.44c.77,0,.99.22.99.99v69.44Z"/>
    <path class="cls-2" d="M46.72,46.21v51.58c0,1.54-.44,1.98-1.98,1.98h-19.84c-1.54,0-1.98-.44-1.98-1.98v-11.9c0-1.54.44-1.98,1.98-1.98h3.97c1.54,0,1.98.44,1.98,1.98v1.98h0v2.98s0,.05,0,.07c.01.71.24.92.99.92h6.02c.71-.01.92-.25.92-.99v-37.77c-.01-.71-.25-.92-.99-.92h-5.95c-.77,0-.99.22-.99.99v4.96c0,1.54-.44,1.98-1.98,1.98h-3.97c-1.54,0-1.98-.44-1.98-1.98v-11.9c0-1.54.44-1.98,1.98-1.98h19.84c1.54,0,1.98.44,1.98,1.98Z"/>
    <path class="cls-2" d="M76.48,44.22h-3.97c-1.54,0-1.98.44-1.98,1.98v4.96c0,.75-.21.98-.92.99h-6.02c-.75,0-.98-.21-.99-.92,0-.02,0-.05,0-.07v-2.98h0v-1.98c0-1.54-.44-1.98-1.98-1.98h-3.97c-1.54,0-1.98.44-1.98,1.98v51.58c0,1.54.44,1.98,1.98,1.98h19.84c1.54,0,1.98-.44,1.98-1.98v-51.58c0-1.54-.44-1.98-1.98-1.98ZM70.53,90.85c0,.75-.21.98-.92.99h-6.02c-.75,0-.98-.21-.99-.92v-29.83c0-.77.22-.99.99-.99h5.95c.77,0,.99.22.99.99v29.76Z"/>
    <rect class="cls-2" x="22.91" y="68.03" width="7.94" height="7.94" rx="1.98" ry="1.98"/>
  </g>
  <g>
    <rect class="cls-1" x="125.09" y="44.22" width="48.61" height="13.89" rx="3.47" ry="3.47"/>
    <rect class="cls-1" x="180.64" y="44.22" width="41.67" height="13.89" rx="3.47" ry="3.47"/>
    <path class="cls-1" d="M218.83,65.05h-41.66c-2.7,0-3.47.78-3.47,3.47v27.78c0,2.7.78,3.47,3.47,3.47h6.94c2.7,0,3.47-.78,3.47-3.47v-15.62c0-1.3.36-1.71,1.61-1.73h17.48c1.3,0,1.71.36,1.73,1.61,0,.04,0,.08,0,.12v5.21h0v10.42c0,2.7.78,3.47,3.47,3.47h6.95c2.7,0,3.47-.78,3.47-3.47v-27.78c0-2.7-.78-3.47-3.47-3.47ZM180.64,92.83h0s0,0,0,0h0Z"/>
    <path class="cls-1" d="M270.91,47.45v7.44c-.05,2.5-.86,3.22-3.47,3.22h-34.72c-2.7,0-3.47-.78-3.47-3.47v-6.94c0-2.7.78-3.47,3.47-3.47h34.97c2.42.05,3.17.81,3.22,3.22Z"/>
    <rect class="cls-1" x="291.74" y="44.22" width="41.66" height="13.89" rx="3.47" ry="3.47"/>
    <path class="cls-1" d="M388.96,68.28v28.27c-.05,2.5-.86,3.22-3.47,3.22h-6.94c-2.7,0-3.47-.78-3.47-3.47v-10.42h0v-5.21s0-.08,0-.12c-.02-1.25-.43-1.61-1.73-1.61h-12.15s-5.21,0-5.21,0c-.04,0-.08,0-.12,0-1.25.02-1.61.43-1.61,1.73v15.62c0,2.7-.78,3.47-3.47,3.47h-6.95c-2.61,0-3.42-.73-3.47-3.22v-28.27c.05-2.5.86-3.22,3.47-3.22h41.67c2.61,0,3.42.73,3.47,3.22Z"/>
    <path class="cls-1" d="M382.02,47.69v6.95c0,2.7-.78,3.47-3.47,3.47h-3.47s-27.78,0-27.78,0h0s-3.47,0-3.47,0c-2.61,0-3.42-.73-3.47-3.22v-7.44c.05-2.33.76-3.12,2.99-3.22h35.69c2.31.09,2.99.94,2.99,3.46Z"/>
    <path class="cls-1" d="M152.86,68.53v6.95c0,2.7-.78,3.47-3.47,3.47h-10.42s-5.21,0-5.21,0c-.04,0-.08,0-.12,0-1.25.02-1.61.43-1.61,1.73v15.62c0,2.7-.78,3.47-3.47,3.47h-6.95c-2.7,0-3.47-.78-3.47-3.47v-27.78c0-2.7.78-3.47,3.47-3.47h27.78c2.7,0,3.47.78,3.47,3.47Z"/>
    <path class="cls-1" d="M277.86,68.53v27.78c0,2.7-.78,3.47-3.47,3.47h-6.94c-2.7,0-3.47-.78-3.47-3.47v-15.62c0-1.35-.39-1.74-1.74-1.74h-17.48c-1.25.02-1.61.43-1.61,1.73v15.62c0,2.7-.78,3.47-3.47,3.47h-6.94c-2.7,0-3.47-.78-3.47-3.47v-27.78c0-2.7.78-3.47,3.47-3.47h41.66c2.7,0,3.47.78,3.47,3.47Z"/>
    <path class="cls-1" d="M333.41,68.53v27.78c0,2.7-.78,3.47-3.47,3.47h-6.94c-2.7,0-3.47-.78-3.47-3.47v-15.62c0-1.35-.39-1.74-1.74-1.74h-12.15s-5.21,0-5.21,0c-.04,0-.08,0-.12,0-1.25.02-1.61.43-1.61,1.73v5.21h0v10.66c-.05,2.5-.86,3.22-3.47,3.22h-6.94c-2.7,0-3.47-.78-3.47-3.47v-27.78c0-2.7.78-3.47,3.47-3.47h41.66c2.7,0,3.47.78,3.47,3.47Z"/>
  </g>
</svg>