<?xml version="1.0" encoding="UTF-8"?>
<svg id="Layer_1" data-name="Layer 1" xmlns="http://www.w3.org/2000/svg" viewBox="0 0 144 144">
  <defs>
    <style>
      .cls-1 {
        fill: #ff391a;
      }
    </style>
  </defs>
  <path class="cls-1" d="M140.73,0H3.27C.73,0,0,.73,0,3.27v137.45c0,2.54.73,3.27,3.27,3.27h137.45c2.54,0,3.27-.73,3.27-3.27V3.27c0-2.54-.73-3.27-3.27-3.27ZM130.91,129.27c0,1.27-.37,1.64-1.64,1.64H14.73c-1.27,0-1.64-.37-1.64-1.64V14.73c0-1.27.37-1.64,1.64-1.64h114.55c1.27,0,1.64.37,1.64,1.64v114.55Z"/>
  <path class="cls-1" d="M65.45,29.45v85.09c0,2.54-.73,3.27-3.27,3.27H29.45c-2.54,0-3.27-.73-3.27-3.27v-19.64c0-2.54.73-3.27,3.27-3.27h6.55c2.54,0,3.27.73,3.27,3.27v3.27h0v4.91s0,.08,0,.12c.02,1.18.4,1.52,1.63,1.52h9.94c1.17-.02,1.52-.41,1.52-1.63v-62.3c-.02-1.18-.41-1.52-1.63-1.52h-9.82c-1.27,0-1.64.37-1.64,1.64v8.18c0,2.54-.73,3.27-3.27,3.27h-6.55c-2.54,0-3.27-.73-3.27-3.27v-19.64c0-2.54.73-3.27,3.27-3.27h32.73c2.54,0,3.27.73,3.27,3.27Z"/>
  <path class="cls-1" d="M114.55,26.18h-6.55c-2.54,0-3.27.73-3.27,3.27v8.18c0,1.23-.34,1.61-1.52,1.63h-9.94c-1.23,0-1.61-.34-1.63-1.52,0-.04,0-.08,0-.12v-4.91h0v-3.27c0-2.54-.73-3.27-3.27-3.27h-6.55c-2.54,0-3.27.73-3.27,3.27v85.09c0,2.54.73,3.27,3.27,3.27h32.73c2.54,0,3.27-.73,3.27-3.27V29.45c0-2.54-.73-3.27-3.27-3.27ZM104.73,103.09c0,1.23-.34,1.61-1.52,1.63h-9.94c-1.23,0-1.61-.34-1.63-1.52v-49.21c0-1.27.37-1.64,1.64-1.64h9.82c1.27,0,1.64.37,1.64,1.64v49.09Z"/>
  <rect class="cls-1" x="26.18" y="65.45" width="13.09" height="13.09" rx="3.27" ry="3.27"/>
</svg>