<?xml version="1.0" encoding="UTF-8"?>
<svg id="Layer_1" data-name="Layer 1" xmlns="http://www.w3.org/2000/svg" viewBox="0 0 288 216">
  <defs>
    <style>
      .cls-1 {
        fill: #fff;
      }

      .cls-2 {
        fill: #ff391a;
      }
    </style>
  </defs>
  <g>
    <rect class="cls-1" x="29.32" y="157.59" width="43.39" height="12.4" rx="3.1" ry="3.1"/>
    <rect class="cls-1" x="78.91" y="157.59" width="37.2" height="12.4" rx="3.1" ry="3.1"/>
    <path class="cls-1" d="M113.01,176.19h-37.19c-2.41,0-3.1.69-3.1,3.1v24.8c0,2.41.69,3.1,3.1,3.1h6.2c2.41,0,3.1-.69,3.1-3.1v-13.95c0-1.16.33-1.53,1.44-1.55h15.61c1.16,0,1.53.33,1.55,1.44,0,.03,0,.07,0,.11v4.65h0v9.3c0,2.41.69,3.1,3.1,3.1h6.2c2.41,0,3.1-.69,3.1-3.1v-24.8c0-2.41-.69-3.1-3.1-3.1ZM78.91,200.99h0s0,0,0,0h0Z"/>
    <path class="cls-1" d="M159.5,160.47v6.64c-.04,2.23-.77,2.88-3.1,2.88h-31c-2.41,0-3.1-.69-3.1-3.1v-6.2c0-2.41.69-3.1,3.1-3.1h31.22c2.16.04,2.83.72,2.88,2.88Z"/>
    <rect class="cls-1" x="178.1" y="157.59" width="37.19" height="12.4" rx="3.1" ry="3.1"/>
    <path class="cls-1" d="M264.88,179.07v25.24c-.04,2.23-.77,2.88-3.1,2.88h-6.2c-2.41,0-3.1-.69-3.1-3.1v-9.3h0v-4.65s0-.08,0-.11c-.02-1.11-.38-1.44-1.55-1.44h-10.85s-4.65,0-4.65,0c-.04,0-.08,0-.11,0-1.11.02-1.44.38-1.44,1.55v13.95c0,2.41-.69,3.1-3.1,3.1h-6.2c-2.33,0-3.06-.65-3.1-2.88v-25.24c.04-2.23.77-2.88,3.1-2.88h37.2c2.33,0,3.06.65,3.1,2.88Z"/>
    <path class="cls-1" d="M258.68,160.68v6.2c0,2.41-.69,3.1-3.1,3.1h-3.1s-24.8,0-24.8,0h0s-3.1,0-3.1,0c-2.33,0-3.06-.65-3.1-2.88v-6.64c.04-2.08.68-2.79,2.67-2.87h31.86c2.06.08,2.67.84,2.67,3.09Z"/>
    <path class="cls-1" d="M54.11,179.29v6.2c0,2.41-.69,3.1-3.1,3.1h-9.3s-4.65,0-4.65,0c-.04,0-.08,0-.11,0-1.11.02-1.44.38-1.44,1.55v13.95c0,2.41-.69,3.1-3.1,3.1h-6.2c-2.41,0-3.1-.69-3.1-3.1v-24.8c0-2.41.69-3.1,3.1-3.1h24.8c2.41,0,3.1.69,3.1,3.1Z"/>
    <path class="cls-1" d="M165.7,179.29v24.8c0,2.41-.69,3.1-3.1,3.1h-6.2c-2.41,0-3.1-.69-3.1-3.1v-13.95c0-1.2-.35-1.55-1.55-1.55h-15.61c-1.11.02-1.44.38-1.44,1.55v13.95c0,2.41-.69,3.1-3.1,3.1h-6.2c-2.41,0-3.1-.69-3.1-3.1v-24.8c0-2.41.69-3.1,3.1-3.1h37.19c2.41,0,3.1.69,3.1,3.1Z"/>
    <path class="cls-1" d="M215.29,179.29v24.8c0,2.41-.69,3.1-3.1,3.1h-6.2c-2.41,0-3.1-.69-3.1-3.1v-13.95c0-1.2-.35-1.55-1.55-1.55h-10.85s-4.65,0-4.65,0c-.04,0-.08,0-.11,0-1.11.02-1.44.38-1.44,1.55v4.65h0v9.52c-.04,2.23-.77,2.88-3.1,2.88h-6.2c-2.41,0-3.1-.69-3.1-3.1v-24.8c0-2.41.69-3.1,3.1-3.1h37.19c2.41,0,3.1.69,3.1,3.1Z"/>
  </g>
  <g>
    <path class="cls-2" d="M181.19,8.82h-74.39c-1.37,0-1.77.4-1.77,1.77v123.98c0,1.37.4,1.77,1.77,1.77h74.39c1.38,0,1.77-.4,1.77-1.77V10.59c0-1.38-.4-1.77-1.77-1.77ZM175.88,128.37c0,.69-.2.89-.89.89h-61.99c-.69,0-.89-.2-.89-.89V16.79c0-.67.19-.87.82-.88h62.05c.69,0,.89.2.89.89v111.58Z"/>
    <path class="cls-2" d="M140.46,24.76v95.64c0,1.37-.4,1.77-1.77,1.77h-17.71c-1.37,0-1.77-.4-1.77-1.77v-10.63c0-1.38.4-1.77,1.77-1.77h3.54c1.33,0,1.75.37,1.77,1.65,0,.04,0,.08,0,.13v4.43c0,.69.2.89.89.89h5.31c.69,0,.89-.2.89-.89V30.89c-.01-.64-.22-.82-.88-.82h-2.66s-2.66,0-2.66,0c-.02,0-.04,0-.06,0-.64.01-.82.22-.82.88v2.66h0v51.36c0,1.37-.4,1.77-1.77,1.77h-3.54c-1.37,0-1.77-.4-1.77-1.77V24.76c0-1.38.4-1.77,1.77-1.77h17.71c1.38,0,1.77.4,1.77,1.77Z"/>
    <path class="cls-2" d="M167.02,22.99h-3.54c-1.37,0-1.77.4-1.77,1.77v4.43c0,.69-.2.89-.89.89h-5.31c-.69,0-.89-.2-.89-.89v-4.43c0-1.38-.4-1.77-1.77-1.77h-3.54c-1.37,0-1.77.4-1.77,1.77v95.64c0,1.37.4,1.77,1.77,1.77h17.71c1.38,0,1.77-.4,1.77-1.77V24.76c0-1.38-.4-1.77-1.77-1.77ZM161.71,114.2c0,.69-.2.89-.89.89h-5.31c-.69,0-.89-.2-.89-.89V38.04c0-.67.19-.87.82-.88h5.38c.67,0,.87.19.88.82v76.22Z"/>
    <rect class="cls-2" x="119.2" y="93.83" width="7.08" height="7.08" rx="1.77" ry="1.77"/>
  </g>
</svg>