<?xml version="1.0" encoding="UTF-8"?>
<svg id="Layer_1" data-name="Layer 1" xmlns="http://www.w3.org/2000/svg" viewBox="0 0 112.43 183.98">
  <defs>
    <style>
      .cls-1 {
        fill: #ff391a;
      }
    </style>
  </defs>
  <path class="cls-1" d="M109.88,0H2.56C.57,0,0,.57,0,2.56v178.87c0,1.98.57,2.56,2.56,2.56h107.32c1.98,0,2.56-.57,2.56-2.56V2.56c0-1.98-.57-2.56-2.56-2.56ZM102.21,172.48c0,.99-.29,1.28-1.28,1.28H11.5c-.99,0-1.28-.29-1.28-1.28V11.5c0-.96.27-1.26,1.19-1.28h89.53c.99,0,1.28.29,1.28,1.28v160.98Z"/>
  <path class="cls-1" d="M51.11,23v137.99c0,1.98-.57,2.56-2.56,2.56h-25.55c-1.98,0-2.56-.57-2.56-2.56v-15.33c0-1.98.57-2.56,2.56-2.56h5.11c1.92,0,2.52.54,2.55,2.37,0,.06,0,.12,0,.18v6.39c0,.99.29,1.28,1.28,1.28h7.67c.99,0,1.28-.29,1.28-1.28V31.85c-.02-.92-.32-1.19-1.28-1.19h-3.83s-3.83,0-3.83,0c-.03,0-.06,0-.09,0-.92.02-1.19.32-1.19,1.28v3.83h0v74.1c0,1.98-.57,2.56-2.56,2.56h-5.11c-1.98,0-2.56-.57-2.56-2.56V23c0-1.98.57-2.56,2.56-2.56h25.55c1.98,0,2.56.57,2.56,2.56Z"/>
  <path class="cls-1" d="M89.43,20.44h-5.11c-1.98,0-2.56.57-2.56,2.56v6.39c0,.99-.29,1.28-1.28,1.28h-7.67c-.99,0-1.28-.29-1.28-1.28v-6.39c0-1.98-.57-2.56-2.56-2.56h-5.11c-1.98,0-2.56.57-2.56,2.56v137.99c0,1.98.57,2.56,2.56,2.56h25.55c1.98,0,2.56-.57,2.56-2.56V23c0-1.98-.57-2.56-2.56-2.56ZM81.77,152.04c0,.99-.29,1.28-1.28,1.28h-7.67c-.99,0-1.28-.29-1.28-1.28V42.16c0-.96.27-1.26,1.19-1.28h7.76c.96,0,1.26.27,1.28,1.19v109.97Z"/>
  <rect class="cls-1" x="20.44" y="122.65" width="10.22" height="10.22" rx="2.56" ry="2.56"/>
</svg>