<?xml version="1.0" encoding="UTF-8"?>
<svg id="Layer_1" xmlns="http://www.w3.org/2000/svg" version="1.1" viewBox="0 0 40 40">
  <!-- Generator: Adobe Illustrator 29.4.0, SVG Export Plug-In . SVG Version: 2.1.0 Build 152)  -->
  <defs>
    <style>
      .st0 {
        fill: #231f20;
      }
    </style>
  </defs>
  <path class="st0" d="M20,21.47l-8.74,8.74c-.2.2-.44.3-.73.31-.29,0-.53-.1-.75-.31-.21-.21-.32-.46-.32-.74s.11-.53.32-.74l8.74-8.74-8.74-8.74c-.2-.2-.3-.44-.31-.73s.1-.53.31-.75c.21-.21.46-.32.74-.32s.53.11.74.32l8.74,8.74,8.74-8.74c.2-.2.44-.3.73-.31s.53.1.75.31c.21.21.32.46.32.74s-.11.53-.32.74l-8.74,8.74,8.74,8.74c.2.2.3.44.31.73,0,.29-.1.53-.31.75-.21.21-.46.32-.74.32s-.53-.11-.74-.32l-8.74-8.74Z"/>
</svg>