<?xml version="1.0" encoding="UTF-8"?>
<svg id="Layer_1" xmlns="http://www.w3.org/2000/svg" version="1.1" viewBox="0 0 24 24">
  <!-- Generator: Adobe Illustrator 29.4.0, SVG Export Plug-In . SVG Version: 2.1.0 Build 152)  -->
  <defs>
    <style>
      .st0 {
        fill: #231f20;
      }

      .st1 {
        fill: #fff;
      }
    </style>
  </defs>
  <rect class="st1" x="4.23" y="5.45" width="15.28" height="13.27"/>
  <path class="st0" d="M15,21l-6-2.1-4.65,1.8c-.33.13-.64.1-.93-.11-.28-.21-.43-.49-.43-.84V5.75c0-.22.06-.41.19-.58s.3-.29.51-.38l5.3-1.8,6,2.1,4.65-1.8c.33-.13.64-.1.93.11s.43.49.43.84v14c0,.22-.06.41-.19.58s-.3.29-.51.38c0,0-5.3,1.8-5.3,1.8ZM14,18.55V6.85l-4-1.4v11.7l4,1.4ZM16,18.55l3-1V5.7l-3,1.15v11.7ZM5,18.3l3-1.15V5.45l-3,1v11.85ZM16,6.85v11.7V6.85ZM8,5.45v11.7V5.45Z"/>
  <g>
    <path class="st0" d="M9.01,19.17l-4.56,1.77c-.16.06-.32.09-.47.09-.24,0-.48-.08-.69-.24-.35-.26-.53-.62-.53-1.04V5.75c0-.28.08-.52.24-.73.15-.2.35-.35.61-.46l5.4-1.83,5.99,2.1,4.56-1.77c.16-.06.32-.1.47-.1.24,0,.48.08.69.24.35.26.53.61.53,1.04v14c0,.28-.08.52-.24.73-.15.2-.35.35-.61.46l-5.4,1.83-5.99-2.1ZM16.25,18.21l2.5-.83V6.07l-2.5.96v11.18ZM13.75,18.2V7.03l-3.5-1.22v11.17l3.5,1.22ZM5.25,17.94l2.5-.96V5.8l-2.5.83v11.31Z"/>
    <path class="st1" d="M8.99,3l6,2.1,4.65-1.8c.13-.05.26-.08.38-.08.19,0,.37.06.55.19.29.21.43.49.43.84v14c0,.22-.06.41-.19.58-.13.17-.3.29-.51.38l-5.3,1.8-6-2.1-4.65,1.8c-.13.05-.26.08-.38.08-.19,0-.37-.06-.55-.19-.28-.21-.43-.49-.43-.84V5.75c0-.22.06-.41.19-.58.13-.17.3-.29.51-.38l5.3-1.8M14.01,18.55V6.85l-4-1.4v11.7l4,1.4M5.01,18.3l3-1.15V5.45l-3,1v11.85M16,18.55l3-1V5.7l-3,1.15v11.7M16,18.55V6.85v11.7M8.01,5.45v11.7V5.45M9,2.47l-.16.06-5.3,1.8c-.34.14-.57.32-.75.55-.19.25-.29.55-.29.88v14c0,.5.22.93.63,1.24.27.19.55.29.85.29.19,0,.38-.04.57-.11l4.48-1.73,5.83,2.04.16.06.16-.06,5.3-1.8c.34-.14.57-.32.75-.55.19-.25.29-.55.29-.88V4.25c0-.51-.22-.94-.64-1.24-.26-.19-.54-.28-.84-.28-.19,0-.38.04-.57.11l-4.48,1.73-5.83-2.04-.16-.06h0ZM5.51,6.82l2-.67v10.66l-2,.77V6.82h0ZM10.51,16.8V6.16l3,1.05v10.64l-3-1.05h0ZM16.5,7.2l2-.77v10.76l-2,.67V7.2h0Z"/>
  </g>
</svg>