<?xml version="1.0" encoding="UTF-8"?>
<svg id="Layer_1" data-name="Layer 1" xmlns="http://www.w3.org/2000/svg" viewBox="0 0 21.6 21.5">
  <defs>
    <style>
      .cls-1 {
        fill: #fff;
      }
    </style>
  </defs>
  <g>
    <path d="M8.05,21.12c-.19,0-.35-.14-.37-.33l-.37-2.98c-.16-.07-.31-.15-.47-.25-.14-.09-.28-.17-.41-.27l-2.78,1.17s-.1.03-.15.03c-.13,0-.26-.07-.32-.19L.43,13.56c-.09-.16-.05-.37.1-.49l2.41-1.82c0-.05,0-.11,0-.16v-.68c0-.06,0-.11,0-.17l-2.41-1.82c-.15-.11-.19-.32-.1-.49L3.18,3.18c.07-.12.19-.19.32-.19.05,0,.1,0,.15.03l2.79,1.17c.14-.09.28-.18.42-.27.15-.09.3-.17.45-.24l.37-2.99c.02-.19.18-.33.37-.33h5.5c.19,0,.35.14.37.33l.37,2.98c.16.07.31.15.47.25.14.09.27.17.41.26l2.78-1.17s.1-.03.15-.03c.13,0,.26.07.32.19l2.75,4.75c.09.16.05.37-.1.49l-2.41,1.83c0,.06,0,.11,0,.17v.68c0,.06,0,.11-.01.17l2.39,1.81c.15.11.19.32.1.49l-2.75,4.75c-.07.12-.19.19-.32.19-.05,0-.1,0-.15-.03l-2.76-1.17c-.14.1-.28.19-.43.27-.15.09-.3.17-.45.24l-.37,2.99c-.02.19-.18.33-.37.33h-5.5ZM11.45,18.38l.31-2.32c.02-.15.13-.28.28-.31.47-.12.92-.3,1.33-.55.43-.25.81-.55,1.14-.88.07-.07.17-.11.27-.11.05,0,.1,0,.14.03l2.17.9.65-1.13-1.89-1.43c-.13-.1-.18-.27-.13-.42.08-.22.13-.44.15-.65.03-.24.05-.49.05-.75s-.02-.5-.05-.75c-.02-.21-.07-.42-.15-.67-.05-.15,0-.32.13-.42l1.88-1.42-.65-1.12-2.17.92s-.1.03-.15.03c-.1,0-.2-.04-.27-.11-.34-.35-.73-.65-1.14-.9-.42-.24-.86-.43-1.33-.55-.15-.04-.26-.16-.28-.32l-.29-2.32h-1.31l-.31,2.32c-.02.15-.13.28-.28.31-.47.12-.92.3-1.34.55-.43.25-.81.55-1.14.87-.07.07-.17.11-.27.11-.05,0-.1,0-.14-.03l-2.18-.89-.64,1.13,1.88,1.4c.13.1.19.27.13.43-.08.22-.13.45-.16.67-.03.24-.05.49-.05.76s.02.49.05.73c.03.22.08.44.16.67.06.15,0,.33-.13.43l-1.89,1.43.64,1.12,2.17-.92s.1-.03.15-.03c.1,0,.2.04.27.12.33.34.71.65,1.13.89.42.25.87.43,1.34.55.15.04.26.17.28.32l.28,2.32h1.32Z"/>
    <path class="cls-1" d="M13.55.75l.4,3.2c.22.08.42.18.61.3.19.12.38.24.57.37l2.97-1.25,2.75,4.75-2.57,1.95c.01.12.02.23.02.34v.68c0,.11-.02.22-.05.33l2.58,1.95-2.75,4.75-2.95-1.25c-.19.14-.38.26-.58.38s-.4.22-.6.3l-.4,3.2h-5.5l-.4-3.2c-.22-.08-.42-.18-.61-.3-.19-.12-.38-.24-.56-.38l-2.98,1.25L.75,13.37l2.58-1.95c-.02-.11-.03-.22-.03-.33v-.68c0-.11.01-.22.03-.34l-2.58-1.95L3.5,3.37l2.98,1.25c.18-.13.37-.25.57-.37s.4-.22.6-.3l.4-3.2h5.5M6.83,6.92l-2.48-1.02-.97,1.7,2.15,1.6c-.09.25-.15.5-.18.75-.03.25-.05.52-.05.8s.02.52.05.77c.03.25.09.5.18.75l-2.15,1.63.97,1.7,2.48-1.05c.36.38.77.7,1.21.96.44.26.92.46,1.44.59l.32,2.65h1.98l.35-2.65c.51-.13.99-.33,1.43-.59.44-.26.85-.57,1.22-.94l2.47,1.03.98-1.7-2.15-1.63c.08-.23.14-.47.17-.73.03-.26.05-.52.05-.79s-.02-.53-.05-.79c-.03-.26-.09-.5-.17-.74l2.15-1.62-.98-1.7-2.47,1.05c-.37-.38-.78-.7-1.22-.96-.44-.26-.92-.46-1.43-.59l-.33-2.65h-1.97l-.35,2.65c-.52.13-1,.33-1.44.59-.44.26-.85.57-1.21.93M13.55,0h-5.5c-.38,0-.7.28-.74.66l-.35,2.79c-.1.05-.2.11-.29.16-.09.05-.18.11-.27.16l-2.61-1.09c-.09-.04-.19-.06-.29-.06-.26,0-.51.14-.65.37L.1,7.74c-.19.33-.11.75.2.97l2.25,1.7v.65l-2.25,1.7c-.3.23-.39.65-.2.97l2.75,4.75c.14.24.39.37.65.37.1,0,.2-.02.29-.06l2.6-1.09c.08.06.17.11.25.16.11.07.21.13.32.18l.35,2.78c.05.38.37.66.74.66h5.5c.38,0,.7-.28.74-.66l.35-2.79c.1-.05.2-.11.29-.16.09-.05.18-.11.28-.17l2.57,1.09c.1.04.19.06.29.06.26,0,.51-.14.65-.37l2.75-4.75c.19-.33.11-.75-.2-.97l-2.23-1.69v-.66l2.25-1.71c.3-.23.39-.65.2-.97l-2.75-4.75c-.14-.24-.39-.37-.65-.37-.1,0-.2.02-.29.06l-2.6,1.09c-.08-.05-.16-.1-.25-.16-.11-.07-.21-.13-.32-.18l-.35-2.78c-.05-.38-.37-.66-.74-.66h0ZM10.49,3.5h.65l.25,1.99c.04.31.26.56.56.63.43.11.85.28,1.23.51.39.23.75.51,1.06.84.14.15.34.23.54.23.1,0,.2-.02.29-.06l1.86-.79.32.55-1.62,1.22c-.26.19-.36.53-.26.84.07.21.11.4.14.59.03.27.05.49.05.7s-.01.44-.05.7c-.02.19-.07.37-.13.57-.11.31,0,.65.26.84l1.62,1.23-.32.56-1.86-.78c-.09-.04-.19-.06-.29-.06-.2,0-.39.08-.53.22-.31.31-.67.59-1.07.82-.38.23-.8.4-1.23.51-.3.08-.52.32-.56.63l-.26,2h-.66l-.24-1.99c-.04-.31-.26-.56-.56-.64-.44-.11-.86-.28-1.24-.51-.39-.23-.75-.51-1.05-.83-.14-.15-.34-.23-.54-.23-.1,0-.2.02-.29.06l-1.87.79-.31-.55,1.63-1.23c.26-.2.36-.54.25-.85-.07-.2-.12-.39-.14-.59-.03-.25-.04-.47-.04-.68,0-.22.02-.46.04-.71.02-.19.07-.39.14-.59.11-.31,0-.66-.26-.86l-1.62-1.2.31-.55,1.87.77c.09.04.19.06.29.06.2,0,.39-.08.53-.22.3-.3.66-.58,1.06-.81.39-.23.8-.4,1.24-.51.3-.07.52-.32.56-.63l.26-2h0Z"/>
  </g>
  <path class="cls-1" d="M16.25,11.54c.03-.26.05-.52.05-.79s-.02-.53-.05-.79c-.03-.26-.09-.5-.17-.74l2.15-1.62-.98-1.7-2.47,1.05c-.37-.38-.78-.7-1.22-.96s-.92-.46-1.43-.59l-.33-2.65h-1.97l-.35,2.65c-.52.13-1,.33-1.44.59s-.85.57-1.21.93l-2.48-1.02-.97,1.7,2.15,1.6c-.09.25-.15.5-.18.75-.03.25-.05.52-.05.8s.02.52.05.77c.03.25.09.5.18.75l-2.15,1.63.97,1.7,2.48-1.05c.36.38.77.7,1.21.96s.92.46,1.44.59l.32,2.65h1.98l.35-2.65c.51-.13.99-.33,1.43-.59s.85-.57,1.22-.94l2.47,1.03.98-1.7-2.15-1.63c.08-.23.14-.47.17-.73ZM13.33,13.22c-.69.69-1.51,1.03-2.48,1.03s-1.81-.34-2.49-1.03c-.67-.68-1.01-1.5-1.01-2.47s.34-1.79,1.01-2.48c.68-.68,1.51-1.02,2.49-1.02s1.79.34,2.48,1.02c.68.69,1.02,1.51,1.02,2.48s-.34,1.79-1.02,2.47Z"/>
  <path d="M14.3,10.75c0,.97-.34,1.79-1.02,2.47s-1.51,1.03-2.48,1.03-1.81-.34-2.49-1.03c-.67-.68-1.01-1.5-1.01-2.47s.34-1.79,1.01-2.48c.68-.68,1.51-1.02,2.49-1.02s1.79.34,2.48,1.02c.68.69,1.02,1.51,1.02,2.48Z"/>
</svg>